<svg xmlns="http://www.w3.org/2000/svg" width="21" height="19" viewBox="0 0 21 19"><g><g><path fill="#556080" d="M10.68.002C4.882-.098.1 4.522.002 10.32a10.468 10.468 0 0 0 3.742 8.207 2.79 2.79 0 0 1 .498-.354l3.133-1.709a1.28 1.28 0 0 0 .666-1.123v-1.284s-.92-1.1-1.27-2.628a1.054 1.054 0 0 1-.486-.884V9.14c0-.309.138-.585.351-.778V6.33S6.22 3.17 10.5 3.17c4.28 0 3.863 3.16 3.863 3.16v2.032c.214.193.35.469.35.778v1.405c0 .472-.316.87-.746 1.003a7.72 7.72 0 0 1-1.043 2.101c-.116.163-.223.3-.318.408v1.317c0 .484.274.927.708 1.144l3.354 1.677c.202.1.384.228.551.37a10.473 10.473 0 0 0 3.779-7.886C21.098 4.881 16.478.101 10.68.002z"/></g></g></svg>